PathFileType  4	(X/Y/Z) C:\Users\antoi\Documents\MyRepositories\mobilecap\ResultsAnalysis
DataRate	CameraRate	NumFrames	NumMarkers	Units	OrigDataRate	OrigDataStartFrame	OrigNumFrames
100.0	100.0	4	51	mm	100.0	83	662
Frame#	Time	r_knee			r_shank_antsup			r_ankle			r_calc			r_5meta			r_toe			L_knee			L_shank_antsup			L_ankle			L_calc			L_5meta			L_toe			r_sh2			r_sh3			r_sh4			L_sh2			L_sh3			r_thigh1			r_thigh2			r_thigh3			r_thigh4			r_thigh5			L_thigh1			L_thigh2			L_thigh3			L_thigh4			r.ASIS			r.PSIS			L.ASIS			L.PSIS			C7			R_Shoulder			L_Shoulder			R_Sternum			L_Sternum			R_humerus			R_elbow_med			R_elbow_lat			R_forearm			R_wrist_radius			R_wrist_ulna			L_humerus			L_elbow_med			L_elbow_lat			L_forearm			L_wrist_radius			L_wrist_ulna			R_HJC			L_HJC			R_HJC_reg			L_HJC_reg			
		X1	Y1	Z1	X2	Y2	Z2	X3	Y3	Z3	X4	Y4	Z4	X5	Y5	Z5	X6	Y6	Z6	X7	Y7	Z7	X8	Y8	Z8	X9	Y9	Z9	X10	Y10	Z10	X11	Y11	Z11	X12	Y12	Z12	X13	Y13	Z13	X14	Y14	Z14	X15	Y15	Z15	X16	Y16	Z16	X17	Y17	Z17	X18	Y18	Z18	X19	Y19	Z19	X20	Y20	Z20	X21	Y21	Z21	X22	Y22	Z22	X23	Y23	Z23	X24	Y24	Z24	X25	Y25	Z25	X26	Y26	Z26	X27	Y27	Z27	X28	Y28	Z28	X29	Y29	Z29	X30	Y30	Z30	X31	Y31	Z31	X32	Y32	Z32	X33	Y33	Z33	X34	Y34	Z34	X35	Y35	Z35	X36	Y36	Z36	X37	Y37	Z37	X38	Y38	Z38	X39	Y39	Z39	X40	Y40	Z40	X41	Y41	Z41	X42	Y42	Z42	X43	Y43	Z43	X44	Y44	Z44	X45	Y45	Z45	X46	Y46	Z46	X47	Y47	Z47	X48	Y48	Z48	X49	Y49	Z49	X50	Y50	Z50	X51	Y51	Z51	

83	0.82000000	-298.32259	513.75926	-457.31835	-254.27554	451.77114	-459.43178	-297.00185	107.53172	-408.57815	-361.82600	71.52183	-444.77390	-195.13328	45.74858	-365.12943	-143.30870	68.07708	-418.97432	-293.99744	510.75351	-855.78708	-253.48685	425.66619	-875.91308	-296.40024	109.45091	-894.18398	-358.19988	72.24414	-850.19294	-193.75774	41.80651	-944.22608	-148.48109	61.00235	-890.33153	-268.38087	342.42454	-419.21083	-334.93328	462.78016	-437.57124	-340.43278	347.92393	-415.48264	-342.24613	429.85533	-872.42880	-336.65412	309.37416	-896.21259	-266.83062	835.68429	-477.07820	-259.95406	724.74525	-468.91209	-313.67136	700.54126	-436.19642	-377.42429	828.82820	-451.03096	-366.43140	711.81756	-448.31990	-310.66341	780.54861	-871.42040	-281.06945	646.59186	-863.30066	-416.10807	758.88435	-825.45040	-381.23438	622.37680	-832.28238	-267.43551	993.80038	-540.61278	-453.94513	1035.02411	-606.87656	-276.12768	972.52330	-786.65555	-467.35657	1031.80312	-704.85678	-315.70957	1436.04871	-687.29575	-226.69711	1380.35164	-523.93694	-280.28390	1380.69804	-862.30164	-192.44186	1361.54805	-678.48112	-193.65756	1356.49851	-716.44290	-260.34211	1276.65800	-429.11337	-379.82821	1092.56258	-405.08467	-340.45164	1113.71384	-343.40496	-223.64785	1048.34750	-393.29627	-131.56087	981.34391	-451.97643	-132.81797	951.16907	-434.18256	-328.56269	1287.07741	-928.51269	-452.03120	1086.33168	-884.91631	-438.57200	1112.98997	-964.24112	-333.14102	1086.99290	-948.71045	-193.40492	1032.32650	-925.61624	-199.32325	1005.86198	-946.76260	-344.42147	915.40830	-552.30820	-356.94167	903.31436	-758.04240	-334.58891	917.46874	-563.15029	-356.69738	912.15904	-724.65971	
84	0.83000000	-298.16576	512.34851	-457.43515	-254.22607	449.62439	-460.23485	-297.36087	105.73612	-409.69424	-362.01812	69.15351	-445.56576	-195.45117	45.61016	-365.35240	-143.70359	68.16206	-419.29596	-294.11268	509.13275	-856.17132	-253.92758	424.08478	-876.47401	-297.18486	107.94723	-893.62128	-358.48563	70.50806	-850.15581	-194.02707	41.67340	-944.42920	-148.92349	61.07200	-890.28745	-268.05731	340.72636	-419.63759	-334.68201	461.16941	-437.14370	-340.11765	346.46919	-415.08799	-342.64960	428.35293	-872.85137	-337.21292	307.74841	-896.46281	-267.09484	834.19729	-477.71901	-259.90780	723.24746	-469.90267	-313.17279	698.68905	-436.48985	-377.12050	827.14478	-449.30823	-366.11005	710.18390	-447.56296	-310.61677	778.98846	-872.21400	-280.95148	645.10665	-863.94362	-416.23038	757.33840	-826.96013	-381.26230	620.81963	-833.48048	-270.05054	991.64763	-540.17436	-455.56330	1032.65435	-606.13587	-278.73941	968.44667	-786.76008	-469.07009	1029.17482	-704.43020	-315.67225	1434.15948	-687.12363	-226.16414	1379.65831	-524.27677	-281.35211	1379.31121	-862.17814	-192.50926	1359.88437	-679.24286	-193.63904	1355.39862	-717.20335	-257.16803	1275.58054	-429.01242	-373.24847	1089.91607	-402.32842	-333.36841	1112.05534	-340.99798	-216.55538	1049.62211	-392.45008	-123.39526	984.05375	-451.84115	-123.80179	953.89153	-433.93948	-328.86985	1285.47190	-928.87158	-449.03679	1082.23826	-887.28613	-435.78993	1110.08877	-966.42708	-329.91533	1086.21714	-950.46608	-189.45758	1034.21108	-926.99114	-194.81652	1007.88294	-948.48890	-346.71201	913.21777	-551.37665	-359.67211	899.83698	-756.99976	-337.06545	914.43633	-562.55199	-359.32245	908.70532	-724.50663	
85	0.84000000	-296.99514	510.39770	-457.25329	-253.14332	446.88026	-460.42498	-297.76568	103.67210	-410.58262	-362.56812	66.65610	-446.07183	-195.73744	45.53718	-365.50704	-144.13018	68.33861	-419.65732	-293.47867	507.21650	-856.93425	-253.43007	422.09476	-877.44129	-297.99815	106.43007	-893.32867	-359.74811	68.40217	-850.84480	-194.25908	41.55889	-944.56350	-149.46589	61.20553	-890.23563	-267.31186	338.50671	-419.60949	-333.54860	459.17569	-436.53621	-339.25983	344.32448	-414.72751	-342.18653	426.72297	-873.50002	-337.18556	306.19409	-896.99417	-268.27765	832.42467	-478.15855	-260.06269	721.57807	-470.33524	-312.70806	696.40112	-436.38728	-377.60259	824.58879	-447.62714	-365.98685	707.75233	-446.56083	-311.33978	776.95028	-873.55339	-281.06638	643.09192	-864.87591	-416.80686	754.73234	-828.24844	-381.30103	618.39559	-834.97545	-271.43602	988.63272	-540.46728	-458.07246	1029.52127	-605.39292	-282.05992	964.49192	-787.28344	-471.63896	1026.19770	-704.05446	-315.29575	1431.52274	-687.03592	-225.35423	1378.19919	-524.60335	-282.18208	1377.10807	-862.05226	-192.43696	1357.39050	-680.44250	-193.33221	1353.44570	-717.97951	-253.28276	1273.65009	-429.03661	-365.83581	1086.09019	-399.50302	-325.16035	1109.44689	-338.64941	-208.00707	1049.74384	-391.89450	-114.05101	986.45993	-452.10215	-113.35509	956.42063	-433.95251	-328.51592	1282.56253	-928.95857	-444.90421	1076.90368	-889.78164	-431.96936	1106.05252	-968.80369	-325.73248	1084.55431	-952.16820	-184.47433	1035.50184	-928.44750	-189.15419	1009.29402	-950.19731	-348.64350	910.25121	-551.14454	-362.91413	896.24019	-756.63934	-339.28419	910.45646	-562.94629	-361.59245	904.99667	-725.16136	
86	0.85000000	-294.90600	508.05040	-456.71654	-251.28855	443.95459	-459.83211	-298.25883	102.21501	-410.57481	-363.53607	64.95954	-445.99688	-195.96167	45.50360	-365.49028	-144.59866	68.61129	-419.74286	-292.03646	505.26048	-858.27181	-251.99667	420.00924	-878.74371	-298.73224	105.06676	-893.32556	-361.62531	66.17758	-851.67732	-194.46593	41.44043	-944.68228	-150.03437	61.36178	-890.19806	-266.15150	335.88334	-419.38735	-331.51965	457.09816	-435.61531	-338.09540	341.85186	-414.48491	-340.78934	425.20793	-874.31346	-336.54941	304.77041	-897.53671	-270.34664	830.37566	-478.43705	-260.58057	719.83126	-470.34210	-312.43234	693.96521	-435.66374	-378.98179	821.33649	-446.14060	-365.97776	704.53094	-445.57449	-312.92787	774.45596	-875.12881	-281.32454	640.75885	-865.97372	-418.11272	751.00518	-829.42519	-381.36892	615.03762	-836.50014	-273.31278	984.39834	-540.76236	-461.40203	1025.75551	-604.91412	-285.92591	960.57076	-788.04413	-474.97356	1022.96036	-703.58833	-314.57150	1428.21223	-686.97229	-224.24093	1375.89519	-525.05888	-282.69326	1374.08107	-861.86513	-191.90543	1353.99179	-681.19059	-192.85632	1350.64146	-718.89738	-248.82875	1270.99443	-429.02728	-357.37976	1081.46985	-396.27554	-315.97550	1106.01644	-336.58111	-197.94296	1049.59768	-391.41208	-103.67819	988.57422	-452.71394	-101.74876	958.80100	-434.03145	-327.53414	1278.52957	-928.85782	-439.69029	1070.57105	-892.22854	-427.14899	1100.96746	-971.21932	-320.61054	1082.20443	-953.89099	-178.56371	1036.45417	-929.95680	-182.42153	1010.18028	-951.74238	-351.34824	906.23661	-551.43978	-366.82219	892.58745	-756.87657	-342.21408	905.62026	-563.64180	-364.57533	901.02130	-726.21659	
